PathFileType	4	(X/Y/Z)	Kaydara																																																																																																																																																																																																																												
DataRate	CameraRate	NumFrames	NumMarkers	Units	OrigDataRate	OrigDataStartFrame	OrigNumFrames																																																																																																																																																																																																																								
60	60	4	74	mm	60	723	211																																																																																																																																																																																																																								
Frame#	Time	N_lasi			N_rasi			N_rpsi			N_lpsi			N_fneck			N_bneck			N_fhead			N_rhead			N_lhead			N_rshld			N_relbtop			N_relbext			N_relblow			N_rwrext			N_rwrtop			N_rwrlow			N_lshld			N_lelblow			N_lelbtop			N_lwrext			N_lwrtop			N_lwrlow			N_rtopleg			N_ltopleg			N_rkneefr			N_rkneebk			N_rkneeis			N_lkneefr			N_lknssbk			N_lkneeis			N_rankfr			N_rankis			N_rankbk			N_lankfr			N_lankbk			N_lankis			D_lasi			D_rasi			D_lpsi			D_fneck			D_bneck			D_fhead			D_rhead			D_lhead			D_rshld			D_relbtop			D_relbext			D_relblow			D_rwrext			D_rwrtop			D_rwrlow			D_lshld			D_lelbext			D_lelblow			D_lelbtop			D_lwrext			D_lwrtop			D_lwrlow			D_rtopleg			D_ltopleg			D_rkneefr			D_rkneebk			D_rkneeis			D_lkneefr			D_lknssbk			D_lkneeis			D_rankfr			D_rankis			D_rankbk			D_lankfr			D_lankbk			D_lankis			D_rpsi			N_lelbext		
		X1	Y1	Z1	X2	Y2	Z2	X3	Y3	Z3	X4	Y4	Z4	X5	Y5	Z5	X6	Y6	Z6	X7	Y7	Z7	X8	Y8	Z8	X9	Y9	Z9	X10	Y10	Z10	X11	Y11	Z11	X12	Y12	Z12	X13	Y13	Z13	X14	Y14	Z14	X15	Y15	Z15	X16	Y16	Z16	X17	Y17	Z17	X18	Y18	Z18	X19	Y19	Z19	X20	Y20	Z20	X21	Y21	Z21	X22	Y22	Z22	X23	Y23	Z23	X24	Y24	Z24	X25	Y25	Z25	X26	Y26	Z26	X27	Y27	Z27	X28	Y28	Z28	X29	Y29	Z29	X30	Y30	Z30	X31	Y31	Z31	X32	Y32	Z32	X33	Y33	Z33	X34	Y34	Z34	X35	Y35	Z35	X36	Y36	Z36	X37	Y37	Z37	X38	Y38	Z38	X39	Y39	Z39	X40	Y40	Z40	X41	Y41	Z41	X42	Y42	Z42	X43	Y43	Z43	X44	Y44	Z44	X45	Y45	Z45	X46	Y46	Z46	X47	Y47	Z47	X48	Y48	Z48	X49	Y49	Z49	X50	Y50	Z50	X51	Y51	Z51	X52	Y52	Z52	X53	Y53	Z53	X54	Y54	Z54	X55	Y55	Z55	X56	Y56	Z56	X57	Y57	Z57	X58	Y58	Z58	X59	Y59	Z59	X60	Y60	Z60	X61	Y61	Z61	X62	Y62	Z62	X63	Y63	Z63	X64	Y64	Z64	X65	Y65	Z65	X66	Y66	Z66	X67	Y67	Z67	X68	Y68	Z68	X69	Y69	Z69	X70	Y70	Z70	X71	Y71	Z71	X72	Y72	Z72	X73	Y73	Z73	X74	Y74	Z74
																																																																																																																																																																																																																															
53	12.033	-523.35693	1232.33887	-45.41073	-520.98038	1251.39526	-279.03263	-252.06091	1228.46146	-344.72294	-259.6122	1215.6572	7.04443	-389.51771	1604.44641	-154.13681	-250.50713	1664.43359	-157.96431	-436.82671	1811.43692	-141.67142	-255.71093	1764.29443	-218.16975	-289.12741	1771.07559	-65.66689	-269.92908	1636.29166	-354.2947	-218.24709	1553.3223	-630.78377	-308.19059	1546.22849	-624.13708	-244.45972	1623.98376	-583.73772	-366.87965	1866.52817	-648.18298	-367.46971	1854.79004	-600.80982	-402.78316	1820.53864	-593.33332	-247.11601	1611.25473	20.96974	-234.90189	1624.21768	292.71273	-190.82092	1546.66443	301.05812	-145.03695	1614.92371	606.44558	-180.09888	1646.31058	618.83522	-217.47965	1605.61935	623.04783	-430.5373	1052.14241	-421.94248	-356.7268	1007.59735	60.12184	-437.0739	561.53503	-247.38932	-333.02868	579.28341	-318.65358	-371.264	564.18022	-156.07308	-379.20444	540.14347	-89.31878	-251.61219	555.30357	-34.78878	-259.67363	547.20997	-184.28421	-299.56013	140.4814	-267.09805	-299.10229	153.92813	-187.16848	-217.95223	142.50923	-214.89527	-331.65771	192.74933	-114.62562	-257.47784	185.12018	-74.20885	-293.47784	164.12018	-158.20885	-450.65586	1037.798	1725.83557	-417.13238	1059.53125	1439.41956	-249.91991	1129.60396	1727.44385	-412.59594	1563.03497	1572.42767	-273.88783	1592.59995	1578.20175	-446.27369	1779.30298	1570.70038	-285.0425	1729.77844	1495.06363	-294.94825	1729.55124	1650.74997	-348.52921	1495.33401	1367.03186	-246.23495	1170.1757	1361.50894	-281.16016	1152.6664	1422.31918	-326.12617	1175.53215	1326.80176	-299.45528	922.53075	1348.9328	-349.97616	922.68906	1320.44189	-372.7322	939.64676	1366.89682	-320.58403	1570.69199	1765.47028	-430.38162	1505.85449	2024.2955	-341.89037	1564.01474	2015.46783	-352.81654	1488.15887	2038.24036	-399.04305	1582.08755	2271.27533	-426.79398	1612.76489	2257.5238	-468.6771	1586.44104	2246.44119	-332.47871	1005.81802	1400.24506	-309.01522	1009.09035	1790.24506	-371.54011	456.92005	1441.82861	-272.03901	490.6411	1411.17889	-277.41375	460.96462	1532.87292	-363.56247	453.41743	1762.80869	-249.91724	485.2248	1776.35956	-324.05346	442.4329	1671.51215	-323.88969	129.90775	1416.40198	-293.91293	127.55324	1480.37598	-243.50931	126.94484	1415.13031	-324.01226	134.30302	1789.87381	-251.11259	125.19596	1803.38242	-294.94654	122.65451	1730.80154	-222.33591	1144.813	1510.03204	-283.70152	1536.51505	320.07378
54	12.05	-522.77863	1233.18916	-44.57686	-521.15231	1251.3575	-278.40641	-252.23913	1228.61206	-344.18003	-259.54863	1216.60057	7.64008	-390.01675	1604.58679	-153.87082	-251.03952	1664.60464	-157.82794	-437.24377	1812.12982	-142.03183	-256.28546	1763.78357	-218.44803	-289.53619	1771.33743	-65.82049	-269.84516	1636.65573	-353.23589	-217.67279	1554.22897	-629.65919	-307.6366	1547.25464	-623.44662	-243.99666	1625.02884	-582.97531	-365.46066	1867.82043	-646.92055	-366.1713	1855.99289	-599.6524	-401.62167	1821.7659	-592.26879	-247.89877	1613.90762	18.77966	-234.95117	1631.10458	290.12085	-189.36884	1554.25583	299.02334	-143.19345	1626.24329	605.01976	-177.36225	1657.58682	616.11359	-214.54632	1616.84464	620.60844	-431.14101	1051.9313	-420.80482	-356.59851	1009.28902	60.91977	-436.79943	561.58146	-246.95711	-332.69226	579.42307	-318.1126	-371.10367	564.16222	-155.72636	-379.17191	540.10941	-88.83049	-251.56973	555.23228	-34.20708	-259.39892	547.27993	-183.79322	-299.4319	140.44232	-267.09999	-299.08033	153.9592	-187.07424	-217.90546	142.54324	-214.78327	-331.66618	192.76299	-114.45411	-257.46283	185.05848	-73.96685	-293.46283	164.05848	-157.96685	-451.04622	1037.8566	1725.52216	-417.07977	1059.52538	1439.22241	-250.14307	1129.62662	1727.47513	-412.63065	1563.06931	1572.19269	-273.96706	1592.61642	1578.18176	-446.33862	1779.27109	1570.46204	-284.99323	1729.82346	1495.02838	-295.18288	1729.61288	1650.75256	-348.34888	1495.42206	1366.91086	-246.08002	1170.21942	1361.50131	-281.00779	1152.72102	1422.26196	-325.9763	1175.59776	1326.69464	-299.27467	922.61543	1348.81638	-349.78165	922.73537	1320.29617	-372.63531	939.68155	1366.62231	-321.09806	1570.50797	1765.65414	-430.7069	1505.33585	2024.14093	-342.2707	1563.51868	2015.42908	-353.08392	1487.60635	2038.1868	-399.33315	1580.99197	2271.19324	-427.17564	1611.8457	2257.58331	-469.09187	1585.45822	2246.43036	-332.47871	1005.81802	1400.24506	-309.2313	1008.87718	1790.06805	-371.52435	456.93398	1441.72195	-271.9595	490.70889	1411.02798	-277.45697	461.02039	1532.86011	-363.80814	453.38928	1762.65762	-250.23809	485.21393	1776.26999	-324.2342	442.42767	1671.41403	-323.87402	129.9204	1416.34338	-293.93257	127.53971	1480.30457	-243.49243	126.95208	1415.10666	-324.07028	134.27564	1789.81369	-251.17346	125.24317	1803.3725	-294.99853	122.6539	1730.75485	-222.32298	1144.81178	1510.01465	-281.94014	1542.87857	318.7705
55	12.067	-522.3048	1234.16603	-44.16556	-521.27666	1251.26724	-278.02883	-252.32117	1228.68324	-343.52264	-259.72012	1217.82028	8.23194	-390.81951	1605.10681	-153.67052	-251.87557	1665.15488	-157.75728	-437.7108	1812.92023	-142.4312	-256.67643	1763.64883	-218.51538	-290.24134	1771.65009	-65.90196	-269.82578	1636.93817	-352.48299	-217.36	1554.79111	-628.99742	-307.35722	1548.04047	-622.77058	-243.80171	1625.78156	-582.45167	-364.15962	1868.88458	-646.11221	-364.98783	1856.9841	-598.7986	-400.41542	1822.92206	-591.51299	-248.49842	1615.63065	17.00151	-234.09468	1636.42395	287.92364	-188.82534	1559.53171	297.58877	-140.64609	1634.88068	603.16784	-175.01545	1666.35895	613.83678	-212.06179	1625.47455	618.53222	-431.41609	1051.54861	-419.58481	-356.50936	1011.02158	61.6822	-436.58237	561.62708	-246.53776	-332.45476	579.5042	-317.54074	-370.90393	564.15916	-155.26425	-379.13765	540.10082	-88.3563	-251.46725	555.1783	-33.57058	-259.28522	547.3167	-183.17806	-299.24673	140.22308	-267.26307	-299.03316	153.99142	-186.973	-217.90234	142.52695	-214.58838	-331.63357	192.78643	-114.24995	-257.45642	185.01698	-73.51589	-293.45642	164.01698	-157.51589	-451.32618	1037.82028	1725.17395	-417.03434	1059.56337	1439.07074	-250.38755	1129.59549	1727.34497	-412.68627	1563.1015	1571.97067	-274.027	1592.612	1578.16559	-446.45653	1779.25186	1570.26352	-284.94797	1729.87152	1495.27924	-295.2544	1729.6637	1650.68054	-348.1781	1495.5188	1366.79031	-245.88047	1170.29236	1361.40228	-280.81959	1152.80228	1422.164	-325.79948	1175.6871	1326.59775	-299.07597	922.66876	1348.66608	-349.57542	922.84584	1320.11993	-372.46643	939.7496	1366.37711	-321.40633	1570.31586	1765.62347	-431.08215	1504.80316	2024.09668	-342.64801	1563.13446	2015.3775	-353.42216	1486.99875	2038.16422	-399.57066	1580.20172	2271.04523	-427.47154	1610.83954	2257.86331	-469.21898	1584.27948	2246.69022	-332.47871	1005.81802	1400.24506	-309.78785	1008.9962	1789.98932	-371.51291	456.96949	1441.56586	-271.90952	490.72041	1410.93979	-277.59155	461.05797	1532.69775	-364.04385	453.30158	1762.53723	-250.46402	485.26375	1776.21185	-324.46938	442.40635	1671.34338	-323.88023	129.91719	1416.315	-293.93021	127.59219	1480.31097	-243.49339	126.95161	1415.10773	-324.15504	134.27533	1789.75922	-251.19537	125.26339	1803.36197	-295.03363	122.66463	1730.70511	-222.33358	1144.81102	1510.02838	-281.28582	1548.52631	317.6984
56	12.083	-521.91387	1235.28679	-43.9914	-521.4341	1251.1544	-277.91471	-252.40555	1228.75153	-342.76241	-259.96426	1219.04121	8.69584	-391.65154	1605.39612	-153.61816	-252.74088	1665.47455	-157.83455	-438.11996	1813.56308	-142.90669	-257.21197	1763.80112	-218.59804	-291.01679	1771.96716	-66.15218	-270.20315	1637.09167	-352.05898	-217.37503	1555.13916	-628.53981	-307.54946	1548.59741	-622.47475	-244.0065	1626.31271	-582.22008	-363.09689	1869.74838	-645.78751	-363.69999	1858.03528	-598.50292	-399.46735	1824.05136	-591.06415	-248.53546	1616.88263	15.57433	-232.69745	1639.9379	286.24359	-188.53024	1562.61566	296.74574	-138.72949	1641.2001	601.22375	-172.89742	1672.59949	612.43347	-209.82422	1631.70395	616.7292	-431.28311	1051.0334	-418.22453	-356.52103	1012.60506	62.17169	-436.32961	561.70574	-246.02865	-332.11876	579.53949	-316.91103	-370.64983	564.16122	-154.7032	-379.08924	540.13176	-87.75024	-251.37251	555.09239	-32.86063	-259.17088	547.30911	-182.43504	-299.32373	140.415	-267.3387	-298.8448	154.026	-186.81688	-217.8887	142.52635	-214.38543	-331.60084	192.77594	-113.96286	-257.53567	184.90648	-73.43109	-293.53567	163.90648	-157.43109	-451.57089	1037.78412	1724.8967	-417.04765	1059.62509	1438.81653	-250.6196	1129.56421	1727.18658	-412.72057	1563.08823	1571.76208	-274.09502	1592.5972	1578.17993	-446.63128	1779.20029	1570.1651	-285.00738	1729.90662	1495.29053	-295.669	1729.6666	1650.85571	-348.03513	1495.59891	1366.70959	-245.6992	1170.36591	1361.35956	-280.59278	1152.85667	1422.05597	-325.52711	1175.7225	1326.42426	-298.91499	922.77466	1348.55072	-349.42417	922.95135	1319.94507	-372.36237	939.83505	1366.12808	-321.73595	1570.13885	1765.68069	-431.52641	1504.30878	2024.05777	-343.22903	1562.77023	2015.51712	-353.77686	1486.62766	2037.96219	-399.66015	1579.13116	2271.00815	-427.72724	1609.89548	2258.18649	-469.44042	1583.44162	2246.8779	-332.47871	1005.81802	1400.24506	-310.1862	1008.909	1789.66492	-371.51012	457.02148	1441.45203	-271.86075	490.73853	1410.83344	-277.58501	461.09333	1532.67578	-364.26941	453.25268	1762.37381	-250.65062	485.25642	1776.00098	-324.67289	442.3975	1671.21521	-323.86261	129.93168	1416.28647	-293.93194	127.59838	1480.31799	-243.49525	126.95086	1415.11063	-324.19922	134.256	1789.7229	-251.27254	125.28389	1803.32169	-295.07648	122.63909	1730.62057	-222.3538	1144.80141	1509.99313	-280.64173	1552.97348	317.0142
